<svg width="48" height="48" viewBox="0 0 48 48" fill="none" xmlns="http://www.w3.org/2000/svg">
<path d="M24 25.125C24.6213 25.125 25.125 24.6213 25.125 24C25.125 23.3787 24.6213 22.875 24 22.875C23.3787 22.875 22.875 23.3787 22.875 24C22.875 24.6213 23.3787 25.125 24 25.125Z" fill="#767F8C" stroke="#767F8C"/>
<path d="M24 18.6504C24.6213 18.6504 25.125 18.1467 25.125 17.5254C25.125 16.9041 24.6213 16.4004 24 16.4004C23.3787 16.4004 22.875 16.9041 22.875 17.5254C22.875 18.1467 23.3787 18.6504 24 18.6504Z" fill="#767F8C" stroke="#767F8C"/>
<path d="M24 31.6104C24.6213 31.6104 25.125 31.1067 25.125 30.4854C25.125 29.864 24.6213 29.3604 24 29.3604C23.3787 29.3604 22.875 29.864 22.875 30.4854C22.875 31.1067 23.3787 31.6104 24 31.6104Z" fill="#767F8C" stroke="#767F8C"/>
</svg>
